<?xml version="1.0" encoding="utf-8"?><svg viewBox="0 0 28 24" xmlns="http://www.w3.org/2000/svg" xmlns:xlink="http://www.w3.org/1999/xlink"><style>:root>svg{display:none}:root>svg:target{display:block}</style><svg viewBox="0 0 24 24" id="back" xmlns="http://www.w3.org/2000/svg"><path fill-rule="evenodd" clip-rule="evenodd" d="M8.957 3.293a1 1 0 00-1.414 0l-5.25 5.25a1 1 0 000 1.414l5.25 5.25a1 1 0 001.414-1.414L5.414 10.25H15.75a4.25 4.25 0 010 8.5h-3a1 1 0 100 2h3a6.25 6.25 0 100-12.5H5.414l3.543-3.543a1 1 0 000-1.414z"/></svg><svg viewBox="0 0 20 20" id="bag" xmlns="http://www.w3.org/2000/svg"><path fill-rule="evenodd" clip-rule="evenodd" d="M5 2.708c-.921 0-1.667.746-1.667 1.666v11.25c0 .92.746 1.667 1.666 1.667h10c.92 0 1.667-.746 1.667-1.667V4.374c0-.92-.746-1.666-1.667-1.666H5zM1.665 4.374a3.333 3.333 0 013.333-3.333h10a3.333 3.333 0 013.334 3.333v11.25a3.333 3.333 0 01-3.334 3.334H5a3.333 3.333 0 01-3.333-3.334V4.374zm12.083-.208c.46 0 .834.373.834.833v1.25a4.583 4.583 0 11-9.167 0V5a.833.833 0 011.667 0v1.25a2.917 2.917 0 005.833 0V5c0-.46.373-.833.833-.833z"/></svg><svg viewBox="0 0 28 20" id="braces" xmlns="http://www.w3.org/2000/svg"><path d="M18 8.925a1 1 0 01.354-.763L28 0v19a1 1 0 01-1 1h-8a1 1 0 01-1-1V8.925zm-18 0a1 1 0 01.354-.763L10 0v19a1 1 0 01-1 1H1a1 1 0 01-1-1V8.925z"/></svg><svg viewBox="0 0 24 24" id="card" xmlns="http://www.w3.org/2000/svg"><path fill-rule="evenodd" clip-rule="evenodd" d="M4.25 4.75a1 1 0 00-1 1v1.5h17.5v-1.5a1 1 0 00-1-1H4.25zm16.5 4.5H3.25v2.5h17.5v-2.5zm0 4.5H3.25v4.5a1 1 0 001 1h15.5a1 1 0 001-1v-4.5zm-19.5-8a3 3 0 013-3h15.5a3 3 0 013 3v12.5a3 3 0 01-3 3H4.25a3 3 0 01-3-3V5.75z"/></svg><svg viewBox="0 0 21 20" id="cart" xmlns="http://www.w3.org/2000/svg"><path fill-rule="evenodd" clip-rule="evenodd" d="M2.88 2.758a6.884 6.884 0 00-.447-.008H.917a.917.917 0 010-1.833h1.542c.197 0 .392 0 .559.013.185.014.401.046.625.146.314.14.582.366.774.652.137.203.206.41.252.59.04.163.074.355.108.548l.004.026L5 4.148l11.93.353c.466.014.87.026 1.203.062.352.04.7.112 1.035.29.507.27.916.692 1.171 1.207.169.34.23.69.26 1.042.026.334.026.738.026 1.206v.068c0 .44 0 .82-.025 1.136-.026.336-.083.669-.237.995A2.75 2.75 0 0119.28 11.7c-.31.184-.636.273-.967.332-.312.054-.691.091-1.129.134l-8.923.863c-.448.043-.837.081-1.16.087-.344.006-.689-.02-1.034-.148a2.75 2.75 0 01-1.289-.982c-.214-.3-.331-.624-.417-.957-.08-.314-.147-.699-.224-1.142l-1.162-6.68a6.894 6.894 0 00-.086-.449h-.01zM5.32 5.99l.617 3.548c.085.487.14.8.2 1.035.058.224.103.305.132.346.107.15.257.264.43.327.047.018.137.04.369.036a14.93 14.93 0 001.05-.082l8.856-.857c.48-.046.788-.077 1.022-.118.222-.04.305-.077.348-.102a.918.918 0 00.36-.398c.021-.044.051-.13.069-.356.018-.236.019-.545.019-1.028 0-.512-.001-.841-.021-1.093-.02-.24-.052-.33-.075-.376a.916.916 0 00-.39-.402c-.044-.023-.134-.059-.373-.085a15.34 15.34 0 00-1.093-.054l-11.52-.34zm2.472 10.052a.917.917 0 100 1.833.917.917 0 000-1.833zm-2.75.917a2.75 2.75 0 115.5 0 2.75 2.75 0 01-5.5 0zm11.458-.917a.917.917 0 100 1.833.917.917 0 000-1.833zm-2.75.917a2.75 2.75 0 115.5 0 2.75 2.75 0 01-5.5 0z"/></svg><svg viewBox="0 0 16 16" id="check" xmlns="http://www.w3.org/2000/svg"><g clip-path="url(#afa)"><path d="M8.001 15.333c4.044 0 7.334-3.29 7.334-7.334a7.27 7.27 0 00-.29-2.044.61.61 0 10-1.174.343 6.118 6.118 0 01-5.87 7.812A6.118 6.118 0 011.891 8 6.118 6.118 0 018 1.887a6.07 6.07 0 013.408 1.036.611.611 0 00.683-1.014A7.288 7.288 0 008.002.666C3.957.666.667 3.956.667 7.999c0 4.044 3.29 7.334 7.333 7.334z"/><path d="M14.863 1.528L8.001 8.39 5.806 6.195a.667.667 0 00-.943.942L7.53 9.804a.664.664 0 00.943 0l7.333-7.333a.667.667 0 00-.943-.943z"/></g><defs><clipPath id="afa"><path d="M0 0h16v16H0z"/></clipPath></defs></svg><svg viewBox="0 0 16 17" id="clock" xmlns="http://www.w3.org/2000/svg"><path d="M8.666 4.833a.667.667 0 00-1.333 0v3.666c0 .177.07.347.195.472l2 2a.667.667 0 00.943-.943L8.666 8.223v-3.39z"/><path fill-rule="evenodd" clip-rule="evenodd" d="M8 1.166a7.333 7.333 0 100 14.667A7.333 7.333 0 008 1.166zM2 8.499a6 6 0 1112 0 6 6 0 01-12 0z"/></svg><svg viewBox="0 0 24 24" id="closed-Eye" xmlns="http://www.w3.org/2000/svg"><path fill-rule="evenodd" clip-rule="evenodd" d="M8.218 18.959a1 1 0 001.241-.677l.727-2.468a8.97 8.97 0 003.629 0l.726 2.468a1 1 0 001.918-.564l-.738-2.51a11.514 11.514 0 002.843-1.795l1.697 1.862a1 1 0 001.478-1.347l-1.743-1.913a18.098 18.098 0 001.852-2.485 1 1 0 00-1.696-1.06c-.695 1.112-1.444 2.05-2.224 2.817-1.197 1.177-2.465 1.953-3.735 2.362a7.04 7.04 0 01-4.386 0c-1.27-.409-2.538-1.185-3.735-2.362-.78-.768-1.529-1.705-2.224-2.817a1 1 0 10-1.696 1.06 18.103 18.103 0 001.853 2.485L2.26 13.927a1 1 0 001.478 1.348l1.697-1.862a11.533 11.533 0 002.844 1.794l-.74 2.51a1 1 0 00.678 1.242z"/></svg><svg viewBox="0 0 24 24" id="convert" xmlns="http://www.w3.org/2000/svg"><path fill-rule="evenodd" clip-rule="evenodd" d="M2.1 2a1 1 0 011 1v4.436A9.999 9.999 0 0112 2c4.355 0 8.058 2.784 9.43 6.667a1 1 0 11-1.885.666A8.004 8.004 0 005.07 8H8.1a1 1 0 110 2h-6a1 1 0 01-1-1V3a1 1 0 011-1zm1.077 12.057a1 1 0 011.276.61A8.004 8.004 0 0018.928 16h-3.03a1 1 0 110-2h6a1 1 0 011 1v6a1 1 0 11-2 0v-4.436a9.999 9.999 0 01-8.9 5.436 10 10 0 01-9.43-6.667 1 1 0 01.609-1.276z"/></svg><svg viewBox="0 0 24 24" id="cross" xmlns="http://www.w3.org/2000/svg"><path fill-rule="evenodd" clip-rule="evenodd" d="M4.293 4.293a1 1 0 011.414 0L12 10.586l6.293-6.293a1 1 0 111.414 1.414L13.414 12l6.293 6.293a1 1 0 01-1.414 1.414L12 13.414l-6.293 6.293a1 1 0 01-1.414-1.414L10.586 12 4.293 5.707a1 1 0 010-1.414z"/></svg><svg viewBox="0 0 16 16" id="danger" xmlns="http://www.w3.org/2000/svg"><g clip-path="url(#aka)"><path fill-rule="evenodd" clip-rule="evenodd" d="M8 2a6 6 0 100 12A6 6 0 008 2zM.667 8a7.333 7.333 0 1114.666 0A7.333 7.333 0 01.667 8z"/><path d="M8.667 10.666a.667.667 0 11-1.334 0 .667.667 0 011.334 0z"/><path fill-rule="evenodd" clip-rule="evenodd" d="M8 9.083a.667.667 0 01-.667-.667v-3.75a.667.667 0 011.334 0v3.75A.667.667 0 018 9.083z"/></g><defs><clipPath id="aka"><path d="M0 0h16v16H0z"/></clipPath></defs></svg><svg viewBox="0 0 20 20" id="delete" xmlns="http://www.w3.org/2000/svg"><path fill-rule="evenodd" clip-rule="evenodd" d="M6.041 3.124c0-1.15.933-2.083 2.083-2.083h3.75c1.15 0 2.084.933 2.084 2.083v.417h4.166a.833.833 0 110 1.667h-1.041v10.416a3.333 3.333 0 01-3.334 3.334h-7.5a3.333 3.333 0 01-3.333-3.334V5.208H1.874a.833.833 0 110-1.667h4.167v-.417zm1.667.417h4.583v-.417a.417.417 0 00-.417-.416h-3.75a.417.417 0 00-.416.416v.417zM4.583 5.208v10.416c0 .92.746 1.667 1.666 1.667h7.5c.92 0 1.667-.746 1.667-1.667V5.208H4.583zm5.416 1.458c.46 0 .834.373.834.833V15a.833.833 0 11-1.667 0V7.5c0-.46.373-.833.833-.833z"/></svg><svg viewBox="0 0 12 12" id="down-chevron" xmlns="http://www.w3.org/2000/svg"><path fill-rule="evenodd" clip-rule="evenodd" d="M9.854 4.146a.5.5 0 010 .708l-3.5 3.5a.5.5 0 01-.708 0l-3.5-3.5a.5.5 0 11.708-.708L6 7.293l3.146-3.147a.5.5 0 01.708 0z" opacity=".6"/></svg><svg viewBox="0 0 19 16" id="eyes" xmlns="http://www.w3.org/2000/svg"><path d="M2.201 5.098c2.254-1.88 4.848-2.931 7.591-2.931 2.744 0 5.338 1.051 7.592 2.931a.833.833 0 101.067-1.28C15.945 1.728 12.983.5 9.792.5 6.602.5 3.64 1.728 1.133 3.818a.833.833 0 001.068 1.28z"/><path fill-rule="evenodd" clip-rule="evenodd" d="M3.418 6.074C4.917 4.81 7.054 3.625 9.48 3.625c2.425 0 4.563 1.184 6.062 2.45a11.066 11.066 0 011.812 1.924c.219.303.401.6.532.877.12.253.24.573.24.895 0 .322-.12.642-.24.895a5.789 5.789 0 01-.532.876 11.07 11.07 0 01-1.812 1.925c-1.5 1.266-3.637 2.45-6.062 2.45-2.426 0-4.563-1.184-6.062-2.45a11.068 11.068 0 01-1.813-1.925c-.218-.303-.4-.6-.532-.876-.12-.253-.239-.573-.239-.895 0-.322.119-.642.24-.895.13-.276.313-.574.531-.877a11.063 11.063 0 011.813-1.925zm-.911 3.697c.008.028.027.086.072.18.077.161.201.371.378.617a9.41 9.41 0 001.536 1.626c1.329 1.122 3.098 2.056 4.987 2.056 1.89 0 3.658-.934 4.986-2.056a9.408 9.408 0 001.536-1.626c.177-.246.302-.456.379-.618.044-.093.064-.15.072-.18a1.272 1.272 0 00-.072-.179 4.152 4.152 0 00-.379-.617 9.404 9.404 0 00-1.535-1.626 10.41 10.41 0 00-.894-.676 4.271 4.271 0 11-8.186 0c-.315.212-.614.44-.894.676a9.406 9.406 0 00-1.536 1.626 4.154 4.154 0 00-.378.617 1.265 1.265 0 00-.072.18zm4.369-1.875a2.604 2.604 0 115.208 0 2.604 2.604 0 01-5.208 0z"/></svg><svg viewBox="0 0 16 16" id="facebook" xmlns="http://www.w3.org/2000/svg"><path d="M11.708.67L9.856.665c-2.08 0-3.424 1.417-3.424 3.61V5.94H4.57a.295.295 0 00-.29.299V8.65c0 .165.13.3.29.3h1.862v6.084c0 .165.13.299.291.299h2.429c.16 0 .291-.134.291-.3V8.95h2.177c.16 0 .291-.134.291-.299V6.24c0-.08-.03-.155-.084-.212a.287.287 0 00-.206-.087H9.443V4.529c0-.678.157-1.022 1.017-1.022h1.248c.16 0 .29-.135.29-.3V.968a.295.295 0 00-.29-.299z"/></svg><svg viewBox="0 0 17 16" id="filter-icon" xmlns="http://www.w3.org/2000/svg"><path fill-rule="evenodd" clip-rule="evenodd" d="M4.833 6.333c.368 0 .666.298.666.667v7.5a.667.667 0 01-1.333 0V7c0-.369.298-.667.667-.667zm0-5.5c.368 0 .666.298.666.667v2a.667.667 0 01-1.333 0v-2c0-.369.298-.667.667-.667z"/><path fill-rule="evenodd" clip-rule="evenodd" d="M1.166 4.833a2 2 0 012-2h3.333a2 2 0 012 2v.833a2 2 0 01-2 2H3.166a2 2 0 01-2-2v-.833zm2-.667a.667.667 0 00-.667.667v.833c0 .369.299.667.667.667h3.333a.667.667 0 00.667-.667v-.833a.667.667 0 00-.667-.667H3.166zm9 7.667c.368 0 .667.299.667.667v2a.667.667 0 01-1.334 0v-2c0-.368.299-.667.667-.667zm0-11c.368 0 .667.298.667.667V9a.667.667 0 01-1.334 0V1.5c0-.369.299-.667.667-.667z"/><path fill-rule="evenodd" clip-rule="evenodd" d="M8.5 10.333a2 2 0 012-2h3.333a2 2 0 012 2v.833a2 2 0 01-2 2h-3.334a2 2 0 01-2-2v-.833zm2-.667a.667.667 0 00-.667.667v.833c0 .368.298.667.666.667h3.334a.667.667 0 00.666-.667v-.833a.667.667 0 00-.666-.667h-3.334z"/></svg><svg viewBox="0 0 20 20" id="geo" xmlns="http://www.w3.org/2000/svg"><path fill-rule="evenodd" clip-rule="evenodd" d="M10.001 6.458a1.667 1.667 0 100 3.333 1.667 1.667 0 000-3.333zM6.668 8.124a3.333 3.333 0 116.667 0 3.333 3.333 0 01-6.667 0z"/><path fill-rule="evenodd" clip-rule="evenodd" d="M10.001 2.708c-3.016 0-5.416 2.363-5.416 5.224 0 2.332 1.401 4.688 2.934 6.54A23.268 23.268 0 0010 17.033a23.27 23.27 0 002.483-2.56c1.532-1.852 2.934-4.208 2.934-6.54 0-2.86-2.4-5.224-5.417-5.224zm0 15.416l-.516.655-.002-.002-.005-.004-.016-.013a13.248 13.248 0 01-.268-.222 24.936 24.936 0 01-2.96-3.003c-1.593-1.926-3.316-4.667-3.316-7.603 0-3.83 3.196-6.891 7.083-6.891 3.888 0 7.084 3.06 7.084 6.891 0 2.936-1.724 5.677-3.317 7.603a24.928 24.928 0 01-2.96 3.003c-.089.076-.16.135-.21.175l-.058.047-.016.013-.004.004-.002.001s-.001.001-.517-.654zm0 0l.516.655a.834.834 0 01-1.032 0l.516-.655z"/></svg><svg viewBox="0 0 16 16" id="google" xmlns="http://www.w3.org/2000/svg"><path d="M8.14 7.003h6.584c.072.405.109.793.109 1.162 0 1.314-.276 2.487-.827 3.519a5.966 5.966 0 01-2.356 2.42c-1.02.58-2.19.872-3.51.872-.95 0-1.855-.184-2.715-.55A6.972 6.972 0 013.2 12.941a6.973 6.973 0 01-1.485-2.224A6.856 6.856 0 011.166 8c0-.95.183-1.855.55-2.715A6.974 6.974 0 013.2 3.061a6.974 6.974 0 012.225-1.484 6.856 6.856 0 012.715-.55c1.816 0 3.375.609 4.677 1.826l-1.898 1.825c-.745-.72-1.671-1.08-2.779-1.08-.78 0-1.503.196-2.166.59A4.35 4.35 0 004.4 5.79a4.365 4.365 0 00-.581 2.211c0 .8.193 1.537.58 2.212a4.35 4.35 0 001.576 1.602c.663.394 1.385.59 2.166.59a4.63 4.63 0 001.453-.217c.442-.146.805-.327 1.09-.545a3.94 3.94 0 00.744-.745 3.47 3.47 0 00.468-.79c.1-.248.168-.484.204-.708H8.14V7.003z"/></svg><svg viewBox="0 0 16 16" id="heart-3" xmlns="http://www.w3.org/2000/svg"><path fill-rule="evenodd" clip-rule="evenodd" d="M8 13.271C4.932 11.525 3.222 9.79 2.395 8.284c-.846-1.542-.772-2.84-.303-3.761.966-1.894 3.71-2.5 5.383-.384L8 4.8l.523-.661c1.673-2.116 4.418-1.51 5.383.384.47.921.544 2.22-.303 3.76-.826 1.507-2.537 3.242-5.603 4.989zM8 2.737C5.645.502 2.175 1.426.904 3.917.208 5.285.2 7.052 1.228 8.925c1.019 1.857 3.052 3.817 6.449 5.694l.322.179.323-.179c3.397-1.877 5.43-3.837 6.45-5.694 1.028-1.873 1.018-3.64.321-5.008C13.823 1.426 10.353.502 8 2.737z"/></svg><svg viewBox="0 0 24 24" id="instagram" xmlns="http://www.w3.org/2000/svg"><path d="M21.98 7.88c-.046-1.063-.218-1.793-.464-2.426a4.88 4.88 0 00-1.157-1.774 4.922 4.922 0 00-1.77-1.153c-.637-.246-1.363-.418-2.426-.464-1.07-.051-1.41-.063-4.126-.063-2.715 0-3.055.012-4.122.059-1.062.046-1.793.218-2.426.464A4.88 4.88 0 003.715 3.68a4.924 4.924 0 00-1.152 1.77c-.247.637-.418 1.363-.465 2.426-.051 1.07-.063 1.41-.063 4.126 0 2.715.012 3.055.059 4.122.047 1.063.219 1.793.465 2.426a4.932 4.932 0 001.156 1.774 4.92 4.92 0 001.77 1.152c.637.247 1.364.419 2.426.465 1.067.047 1.407.059 4.122.059 2.716 0 3.056-.012 4.122-.059 1.063-.046 1.793-.218 2.426-.464a5.116 5.116 0 002.927-2.927c.246-.637.418-1.364.465-2.426.047-1.067.058-1.407.058-4.122s-.004-3.055-.05-4.122zm-1.8 8.166c-.044.977-.208 1.504-.345 1.855a3.317 3.317 0 01-1.898 1.9c-.352.136-.883.3-1.856.343-1.055.047-1.371.059-4.04.059-2.668 0-2.989-.012-4.04-.059-.977-.043-1.504-.207-1.856-.344a3.077 3.077 0 01-1.148-.746 3.11 3.11 0 01-.747-1.148c-.136-.352-.3-.883-.343-1.856-.047-1.055-.059-1.372-.059-4.04 0-2.669.012-2.99.059-4.04.043-.977.207-1.504.343-1.856A3.04 3.04 0 015 4.965a3.105 3.105 0 011.15-.746c.35-.137.882-.3 1.855-.344 1.055-.046 1.372-.058 4.04-.058 2.672 0 2.989.012 4.04.058.977.043 1.504.207 1.856.344.433.16.828.414 1.148.746.332.325.586.715.747 1.15.136.35.3.882.343 1.855.047 1.055.059 1.371.059 4.04 0 2.668-.012 2.98-.059 4.036z"/><path d="M12.037 6.864A5.139 5.139 0 006.9 12.002a5.139 5.139 0 105.138-5.138zm0 8.47a3.333 3.333 0 11.001-6.666 3.333 3.333 0 010 6.667zm6.541-8.673a1.2 1.2 0 11-2.4 0 1.2 1.2 0 012.4 0z"/></svg><svg viewBox="0 0 20 20" id="iphone" xmlns="http://www.w3.org/2000/svg"><path fill-rule="evenodd" clip-rule="evenodd" d="M7.085 2.434c-.69 0-1.25.56-1.25 1.25v12.63c0 .69.56 1.25 1.25 1.25h5.833c.69 0 1.25-.56 1.25-1.25V3.684c0-.69-.56-1.25-1.25-1.25h-.07l-.203.487a.833.833 0 01-.769.513h-3.75a.833.833 0 01-.769-.513l-.203-.487h-.07zm-2.917 1.25A2.917 2.917 0 017.085.768h5.833a2.917 2.917 0 012.917 2.916v12.63a2.917 2.917 0 01-2.917 2.917H7.085a2.917 2.917 0 01-2.917-2.917V3.684z"/></svg><svg viewBox="0 0 24 24" id="left" xmlns="http://www.w3.org/2000/svg"><path fill-rule="evenodd" clip-rule="evenodd" d="M9.207 17.13a1.027 1.027 0 01-1.414 0l-4.5-4.334a.938.938 0 010-1.362l4.5-4.334a1.027 1.027 0 011.414 0c.39.376.39.986 0 1.362l-2.793 2.69H20c.552 0 1 .431 1 .963s-.448.963-1 .963H6.414l2.793 2.69c.39.376.39.986 0 1.362z"/></svg><svg viewBox="0 0 16 16" id="left-chevron" xmlns="http://www.w3.org/2000/svg"><path fill-rule="evenodd" clip-rule="evenodd" d="M10.47 2.862a.667.667 0 00-.942 0L4.86 7.53a.667.667 0 000 .943l4.667 4.666a.667.667 0 00.943-.942L6.275 8l4.196-4.195a.667.667 0 000-.943z"/></svg><svg viewBox="0 0 16 16" id="linked-In" xmlns="http://www.w3.org/2000/svg"><path d="M14.662 14.667h.003v-4.89c0-2.392-.515-4.235-3.311-4.235-1.345 0-2.247.738-2.615 1.437h-.04V5.765H6.05v8.902h2.76v-4.408c0-1.16.22-2.283 1.658-2.283 1.416 0 1.437 1.325 1.437 2.357v4.334h2.758zM1.552 5.766h2.764v8.901H1.552V5.766zm1.381-4.432c-.884 0-1.601.717-1.601 1.601s.717 1.616 1.601 1.616 1.601-.732 1.601-1.616c0-.884-.718-1.601-1.6-1.601z"/></svg><svg viewBox="0 0 20 20" id="logout" xmlns="http://www.w3.org/2000/svg"><path d="M13.75 17.291a.833.833 0 010 1.667H5.21a4.167 4.167 0 01-4.167-4.167V5.208A4.167 4.167 0 015.21 1.04h8.542a.833.833 0 010 1.667H5.209a2.5 2.5 0 00-2.5 2.5v9.583a2.5 2.5 0 002.5 2.5h8.542z"/><path d="M4.792 10c0 .22.088.432.244.589l3.75 3.75a.833.833 0 001.179-1.179l-2.328-2.327h10.489a.833.833 0 000-1.667H7.637l2.328-2.327A.833.833 0 008.786 5.66l-3.75 3.75a.833.833 0 00-.244.59z"/></svg><svg viewBox="0 0 20 20" id="mail" xmlns="http://www.w3.org/2000/svg"><path fill-rule="evenodd" clip-rule="evenodd" d="M18.96 15V5.835a2.5 2.5 0 00-2.5-2.5H3.543a2.5 2.5 0 00-2.5 2.5v9.167a2.5 2.5 0 002.5 2.5H16.46a2.5 2.5 0 002.5-2.5zm-1.667-7.283V15c0 .46-.373.833-.833.833H3.543A.833.833 0 012.71 15V7.717l5.886 4.002a2.5 2.5 0 002.811 0l5.886-4.002zm-.01-2.01a.834.834 0 00-.823-.706H3.543a.834.834 0 00-.824.707l6.814 4.633a.833.833 0 00.937 0l6.813-4.633z"/></svg><svg viewBox="0 0 16 16" id="mark" xmlns="http://www.w3.org/2000/svg"><path fill-rule="evenodd" clip-rule="evenodd" d="M14.472 3.53c.26.26.26.682 0 .942l-8 8a.667.667 0 01-.943 0l-4-4a.667.667 0 11.942-.943l3.53 3.529 7.528-7.529c.26-.26.682-.26.943 0z"/></svg><svg viewBox="0 0 20 20" id="messenger" xmlns="http://www.w3.org/2000/svg"><path d="M10.001 1.666c-4.602 0-8.333 3.454-8.333 7.716 0 2.428 1.211 4.593 3.105 6.008v2.943l2.838-1.558c.757.21 1.559.323 2.39.323 4.602 0 8.334-3.454 8.334-7.715 0-4.262-3.732-7.717-8.334-7.717zm.828 10.39L8.708 9.794l-4.141 2.264L9.122 7.22l2.174 2.264 4.089-2.264-4.556 4.836z"/></svg><svg viewBox="0 0 16 16" id="pinterest" xmlns="http://www.w3.org/2000/svg"><path d="M8.2.666C4.153.666 2 3.243 2 6.051c0 1.303.733 2.927 1.907 3.443.334.15.29-.033.578-1.127a.258.258 0 00-.063-.255c-1.677-1.927-.327-5.888 3.54-5.888 5.595 0 4.55 7.689.973 7.689-.922 0-1.609-.719-1.391-1.608.263-1.06.779-2.198.779-2.96 0-1.925-2.887-1.64-2.887.91 0 .787.281 1.32.281 1.32s-.929 3.724-1.1 4.42c-.293 1.179.039 3.086.067 3.25.018.09.12.12.178.045.091-.12 1.214-1.71 1.528-2.859l.584-2.117c.31.555 1.202 1.02 2.153 1.02C11.956 11.333 14 8.863 14 5.8 13.99 2.864 11.459.666 8.2.666z"/></svg><svg viewBox="0 0 20 20" id="profile" xmlns="http://www.w3.org/2000/svg"><path fill-rule="evenodd" clip-rule="evenodd" d="M10.001 2.709a2.917 2.917 0 100 5.833 2.917 2.917 0 000-5.833zM5.418 5.625a4.583 4.583 0 119.167 0 4.583 4.583 0 01-9.167 0zm-.33 7.084c-.578 0-1.03.281-1.213.685-.253.56-.483 1.226-.537 1.857-.025.283.093.49.255.592.858.532 2.845 1.449 6.408 1.449s5.55-.917 6.408-1.45c.162-.1.28-.308.256-.59-.054-.632-.284-1.298-.538-1.858-.183-.404-.635-.685-1.212-.685H5.088zm-2.73-.003c.506-1.117 1.637-1.664 2.73-1.664h9.826c1.093 0 2.224.547 2.731 1.664.291.641.603 1.504.68 2.403.07.818-.27 1.673-1.037 2.15-1.127.7-3.42 1.7-7.287 1.7-3.866 0-6.16-1-7.287-1.7-.767-.477-1.107-1.332-1.037-2.15.077-.9.39-1.762.68-2.403z"/></svg><svg viewBox="0 0 24 24" id="right" xmlns="http://www.w3.org/2000/svg"><path fill-rule="evenodd" clip-rule="evenodd" d="M14.793 7.1a1.027 1.027 0 011.414 0l4.5 4.334c.39.376.39.985 0 1.362l-4.5 4.334a1.027 1.027 0 01-1.414 0 .938.938 0 010-1.362l2.793-2.69H4c-.552 0-1-.432-1-.963 0-.532.448-.964 1-.964h13.586l-2.793-2.69a.938.938 0 010-1.362z"/></svg><svg viewBox="0 0 16 16" id="right-chevron" xmlns="http://www.w3.org/2000/svg"><path fill-rule="evenodd" clip-rule="evenodd" d="M5.53 2.862c.26-.26.682-.26.942 0L11.14 7.53c.26.26.26.682 0 .943l-4.667 4.666a.667.667 0 01-.943-.942L9.725 8 5.529 3.805a.667.667 0 010-.943z"/></svg><svg viewBox="0 0 16 17" id="share-arrow" xmlns="http://www.w3.org/2000/svg"><path d="M.665 7.83l6.096-6.663v3.975h1.295c4.019 0 7.276 3.247 7.276 7.252V14.5l-.576-.628a10.344 10.344 0 00-7.629-3.355h-.366v3.974L.665 7.83z"/></svg><svg viewBox="0 0 14 14" id="stat-outline" xmlns="http://www.w3.org/2000/svg"><path fill-rule="evenodd" clip-rule="evenodd" d="M5.933 1.284c.405-.935 1.73-.935 2.136 0L9.295 4.11l3.067.292c1.014.097 1.424 1.358.66 2.032l-2.31 2.04.67 3.007c.222.994-.85 1.774-1.728 1.256L7.001 11.17l-2.654 1.567c-.877.518-1.95-.262-1.728-1.256l.67-3.008-2.31-2.04c-.763-.673-.354-1.934.66-2.03l3.068-.293 1.226-2.827zm2.294 3.29L7 1.747 5.775 4.574a1.164 1.164 0 01-.958.696l-3.067.292 2.31 2.04c.317.28.457.712.365 1.125l-.67 3.008L6.41 10.17a1.164 1.164 0 011.183 0l2.654 1.566-.67-3.008a1.164 1.164 0 01.366-1.125l2.31-2.04-3.068-.292a1.164 1.164 0 01-.957-.696z"/></svg><svg viewBox="0 0 16 16" id="twitter" xmlns="http://www.w3.org/2000/svg"><path d="M15 3.849a5.935 5.935 0 01-1.65.433 2.786 2.786 0 001.263-1.52 5.948 5.948 0 01-1.825.667 2.924 2.924 0 00-2.096-.868C9.106 2.56 7.82 3.79 7.82 5.31c0 .215.026.425.075.626-2.387-.114-4.503-1.21-5.92-2.873a2.641 2.641 0 00-.388 1.382c0 .954.507 1.796 1.277 2.289a2.97 2.97 0 01-1.3-.345v.034c0 1.332.99 2.444 2.303 2.697a3.03 3.03 0 01-.757.096c-.185 0-.365-.018-.54-.051.365 1.093 1.425 1.888 2.682 1.91a5.926 5.926 0 01-3.567 1.175A6.37 6.37 0 011 12.212a8.382 8.382 0 004.402 1.237c5.283 0 8.171-4.19 8.171-7.823l-.01-.356A5.608 5.608 0 0015 3.849z"/></svg><svg viewBox="0 0 16 16" id="up-down-select" xmlns="http://www.w3.org/2000/svg"><path d="M8 .667l4.618 6H3.381L8 .667zm0 14.667l-4.62-6.5h9.238L8 15.334z"/></svg><svg viewBox="0 0 22 22" id="upload" xmlns="http://www.w3.org/2000/svg"><path fill-rule="evenodd" clip-rule="evenodd" d="M10.293.543a1 1 0 011.414 0l4.5 4.5a1 1 0 01-1.414 1.414L12 3.664V16.25a1 1 0 11-2 0V3.664L7.207 6.457a1 1 0 01-1.414-1.414l4.5-4.5zM1.25 13a1 1 0 011 1v3.75a2 2 0 002 2h13.5a2 2 0 002-2V14a1 1 0 112 0v3.75a4 4 0 01-4 4H4.25a4 4 0 01-4-4V14a1 1 0 011-1z"/></svg><svg viewBox="0 0 16 16" id="youtube" xmlns="http://www.w3.org/2000/svg"><path fill-rule="evenodd" clip-rule="evenodd" d="M14.26 2.743a2.004 2.004 0 011.41 1.41c.343 1.252.33 3.862.33 3.862s0 2.596-.33 3.848a2.005 2.005 0 01-1.41 1.41c-1.252.33-6.26.33-6.26.33s-4.995 0-6.26-.343a2.005 2.005 0 01-1.41-1.41C0 10.611 0 8.002 0 8.002s0-2.597.33-3.849A2.046 2.046 0 011.74 2.73C2.992 2.4 8 2.4 8 2.4s5.008 0 6.26.343zm-3.69 5.259L6.405 10.4V5.603l4.165 2.399z"/></svg></svg>